<?xml version="1.0" encoding="UTF-8"?>
<!DOCTYPE svg PUBLIC "-//W3C//DTD SVG 1.1//EN" "http://www.w3.org/Graphics/SVG/1.1/DTD/svg11.dtd">
<!-- Creator: CorelDRAW 2021.5 -->
<svg xmlns="http://www.w3.org/2000/svg" xml:space="preserve" width="541px" height="159px" version="1.1" style="shape-rendering:geometricPrecision; text-rendering:geometricPrecision; image-rendering:optimizeQuality; fill-rule:evenodd; clip-rule:evenodd"
viewBox="0 0 39.94 11.74"
 xmlns:xlink="http://www.w3.org/1999/xlink"
 xmlns:xodm="http://www.corel.com/coreldraw/odm/2003">
 <defs>
  <style type="text/css">
   <![CDATA[
    .fil0 {fill:#536DE6;fill-rule:nonzero}
   ]]>
  </style>
 </defs>
 <g id="Layer_x0020_1">
  <metadata id="CorelCorpID_0Corel-Layer"/>
  <polygon class="fil0" points="1.65,10.86 0.07,10.86 0.07,8.23 1.59,8.23 1.59,8.71 0.67,8.71 0.67,9.3 1.53,9.3 1.53,9.78 0.67,9.78 0.67,10.38 1.65,10.38 "/>
  <polygon id="_1" class="fil0" points="4.07,10.06 3.07,10.06 3.07,9.66 4.07,9.66 "/>
  <path id="_2" class="fil0" d="M5.54 10.76l0 -0.59c0.11,0.09 0.22,0.16 0.35,0.2 0.12,0.05 0.25,0.07 0.38,0.07 0.07,0 0.14,-0.01 0.19,-0.02 0.06,-0.01 0.1,-0.03 0.14,-0.05 0.04,-0.03 0.07,-0.06 0.08,-0.09 0.02,-0.03 0.03,-0.07 0.03,-0.1 0,-0.06 -0.01,-0.1 -0.04,-0.14 -0.03,-0.04 -0.07,-0.08 -0.12,-0.11 -0.05,-0.04 -0.11,-0.07 -0.18,-0.1 -0.07,-0.03 -0.15,-0.07 -0.23,-0.1 -0.2,-0.09 -0.36,-0.19 -0.46,-0.31 -0.1,-0.13 -0.15,-0.28 -0.15,-0.45 0,-0.14 0.03,-0.25 0.08,-0.35 0.06,-0.1 0.13,-0.18 0.23,-0.25 0.09,-0.06 0.2,-0.11 0.33,-0.14 0.12,-0.03 0.25,-0.04 0.39,-0.04 0.14,0 0.26,0.01 0.37,0.02 0.1,0.02 0.2,0.05 0.29,0.08l0 0.55c-0.04,-0.03 -0.09,-0.06 -0.14,-0.08 -0.06,-0.03 -0.11,-0.05 -0.17,-0.06 -0.05,-0.02 -0.11,-0.03 -0.16,-0.03 -0.05,-0.01 -0.11,-0.02 -0.15,-0.02 -0.07,0 -0.13,0.01 -0.19,0.02 -0.05,0.02 -0.1,0.03 -0.14,0.06 -0.04,0.02 -0.07,0.05 -0.09,0.08 -0.02,0.03 -0.03,0.07 -0.03,0.11 0,0.04 0.01,0.08 0.04,0.12 0.02,0.03 0.05,0.07 0.1,0.1 0.04,0.03 0.09,0.06 0.15,0.09 0.06,0.03 0.13,0.06 0.21,0.09 0.11,0.05 0.2,0.09 0.28,0.14 0.09,0.05 0.16,0.11 0.22,0.17 0.06,0.06 0.11,0.13 0.14,0.21 0.03,0.08 0.05,0.18 0.05,0.28 0,0.15 -0.03,0.27 -0.09,0.37 -0.05,0.1 -0.13,0.18 -0.22,0.24 -0.1,0.07 -0.21,0.11 -0.34,0.14 -0.12,0.02 -0.26,0.04 -0.4,0.04 -0.14,0 -0.28,-0.02 -0.41,-0.04 -0.13,-0.02 -0.24,-0.06 -0.34,-0.11z"/>
  <path id="_3" class="fil0" d="M9.13 10.79c-0.13,0.08 -0.32,0.12 -0.56,0.12 -0.29,0 -0.53,-0.09 -0.71,-0.27 -0.17,-0.17 -0.26,-0.39 -0.26,-0.67 0,-0.32 0.09,-0.57 0.28,-0.75 0.2,-0.19 0.45,-0.28 0.77,-0.28 0.22,0 0.38,0.03 0.48,0.09l0 0.49c-0.12,-0.09 -0.25,-0.14 -0.4,-0.14 -0.17,0 -0.3,0.05 -0.4,0.15 -0.1,0.1 -0.14,0.23 -0.14,0.4 0,0.17 0.04,0.3 0.14,0.39 0.09,0.1 0.22,0.14 0.38,0.14 0.14,0 0.28,-0.04 0.42,-0.13l0 0.46z"/>
  <path id="_4" class="fil0" d="M11.31 10.86l-0.58 0 0 -1.06c0,-0.28 -0.1,-0.42 -0.3,-0.42 -0.1,0 -0.18,0.04 -0.25,0.12 -0.06,0.08 -0.09,0.17 -0.09,0.29l0 1.07 -0.58 0 0 -2.78 0.58 0 0 1.18 0.01 0c0.14,-0.21 0.33,-0.32 0.57,-0.32 0.43,0 0.64,0.26 0.64,0.77l0 1.15z"/>
  <path id="_5" class="fil0" d="M12.66 10.91c-0.31,0 -0.55,-0.09 -0.73,-0.27 -0.18,-0.17 -0.27,-0.41 -0.27,-0.71 0,-0.31 0.09,-0.55 0.28,-0.73 0.18,-0.17 0.43,-0.26 0.75,-0.26 0.31,0 0.56,0.09 0.73,0.26 0.18,0.18 0.27,0.41 0.27,0.7 0,0.31 -0.09,0.56 -0.27,0.74 -0.19,0.18 -0.44,0.27 -0.76,0.27zm0.02 -1.53c-0.14,0 -0.24,0.05 -0.32,0.14 -0.07,0.1 -0.11,0.23 -0.11,0.4 0,0.36 0.14,0.54 0.43,0.54 0.28,0 0.42,-0.18 0.42,-0.55 0,-0.35 -0.14,-0.53 -0.42,-0.53z"/>
  <path id="_6" class="fil0" d="M14.96 10.91c-0.31,0 -0.56,-0.09 -0.74,-0.27 -0.18,-0.17 -0.27,-0.41 -0.27,-0.71 0,-0.31 0.1,-0.55 0.28,-0.73 0.19,-0.17 0.44,-0.26 0.76,-0.26 0.31,0 0.55,0.09 0.73,0.26 0.18,0.18 0.26,0.41 0.26,0.7 0,0.31 -0.09,0.56 -0.27,0.74 -0.18,0.18 -0.43,0.27 -0.75,0.27zm0.02 -1.53c-0.14,0 -0.25,0.05 -0.32,0.14 -0.08,0.1 -0.12,0.23 -0.12,0.4 0,0.36 0.15,0.54 0.44,0.54 0.28,0 0.42,-0.18 0.42,-0.55 0,-0.35 -0.14,-0.53 -0.42,-0.53z"/>
  <polygon id="_7" class="fil0" points="16.94,10.86 16.36,10.86 16.36,8.08 16.94,8.08 "/>
  <path id="_8" class="fil0" d="M19.11 9.96l0 0.9 -0.59 0 0 -2.63 0.93 0c0.66,0 0.99,0.28 0.99,0.84 0,0.27 -0.09,0.48 -0.28,0.64 -0.19,0.17 -0.45,0.25 -0.76,0.25l-0.29 0zm0 -1.27l0 0.82 0.24 0c0.31,0 0.47,-0.14 0.47,-0.42 0,-0.27 -0.16,-0.4 -0.47,-0.4l-0.24 0z"/>
  <path id="_9" class="fil0" d="M22.33 10.86l-0.55 0 0 -0.27 0 0c-0.13,0.21 -0.32,0.32 -0.56,0.32 -0.18,0 -0.33,-0.05 -0.43,-0.16 -0.11,-0.1 -0.16,-0.24 -0.16,-0.41 0,-0.36 0.22,-0.57 0.65,-0.63l0.51 -0.07c0,-0.2 -0.11,-0.31 -0.34,-0.31 -0.22,0 -0.43,0.07 -0.63,0.2l0 -0.43c0.08,-0.04 0.19,-0.08 0.33,-0.11 0.14,-0.03 0.26,-0.05 0.38,-0.05 0.53,0 0.8,0.27 0.8,0.8l0 1.12zm-0.54 -0.76l0 -0.13 -0.34 0.05c-0.19,0.02 -0.29,0.11 -0.29,0.25 0,0.07 0.03,0.12 0.07,0.16 0.05,0.05 0.11,0.07 0.19,0.07 0.11,0 0.2,-0.04 0.26,-0.12 0.07,-0.07 0.11,-0.17 0.11,-0.28z"/>
  <polygon id="_10" class="fil0" points="23.37,10.86 22.79,10.86 22.79,8.08 23.37,8.08 "/>
  <path id="_11" class="fil0" d="M25.64 8.98l-0.76 2.03c-0.18,0.49 -0.46,0.73 -0.83,0.73 -0.14,0 -0.25,-0.01 -0.34,-0.04l0 -0.47c0.07,0.05 0.16,0.07 0.25,0.07 0.15,0 0.25,-0.07 0.31,-0.21l0.1 -0.23 -0.76 -1.88 0.64 0 0.35 1.15c0.02,0.07 0.04,0.15 0.05,0.25l0.01 0c0.01,-0.07 0.03,-0.16 0.06,-0.25l0.35 -1.15 0.57 0z"/>
  <path id="_12" class="fil0" d="M28.86 10.86l-0.58 0 0 -1.07c0,-0.27 -0.1,-0.41 -0.3,-0.41 -0.1,0 -0.17,0.04 -0.23,0.13 -0.06,0.08 -0.09,0.18 -0.09,0.3l0 1.05 -0.58 0 0 -1.08c0,-0.26 -0.1,-0.4 -0.3,-0.4 -0.1,0 -0.18,0.04 -0.23,0.12 -0.06,0.08 -0.09,0.18 -0.09,0.32l0 1.04 -0.58 0 0 -1.88 0.58 0 0 0.3 0 0c0.06,-0.1 0.15,-0.18 0.26,-0.25 0.1,-0.06 0.22,-0.09 0.35,-0.09 0.27,0 0.45,0.12 0.55,0.35 0.14,-0.23 0.35,-0.35 0.63,-0.35 0.4,0 0.61,0.25 0.61,0.76l0 1.16z"/>
  <path id="_13" class="fil0" d="M31 10.09l-1.22 0c0.02,0.27 0.19,0.41 0.51,0.41 0.21,0 0.39,-0.05 0.55,-0.15l0 0.42c-0.18,0.09 -0.4,0.14 -0.68,0.14 -0.3,0 -0.54,-0.09 -0.71,-0.26 -0.16,-0.16 -0.25,-0.4 -0.25,-0.7 0,-0.31 0.09,-0.56 0.28,-0.74 0.18,-0.18 0.4,-0.27 0.66,-0.27 0.28,0 0.49,0.08 0.64,0.24 0.15,0.17 0.22,0.39 0.22,0.67l0 0.24zm-0.53 -0.36c0,-0.27 -0.11,-0.4 -0.33,-0.4 -0.09,0 -0.17,0.04 -0.24,0.12 -0.07,0.07 -0.11,0.17 -0.13,0.28l0.7 0z"/>
  <path id="_14" class="fil0" d="M33.16 10.86l-0.58 0 0 -1.04c0,-0.29 -0.1,-0.44 -0.31,-0.44 -0.1,0 -0.18,0.04 -0.25,0.12 -0.06,0.08 -0.09,0.17 -0.09,0.29l0 1.07 -0.58 0 0 -1.88 0.58 0 0 0.3 0 0c0.14,-0.23 0.34,-0.34 0.61,-0.34 0.41,0 0.62,0.26 0.62,0.77l0 1.15z"/>
  <path id="_15" class="fil0" d="M34.75 10.84c-0.08,0.04 -0.21,0.07 -0.38,0.07 -0.41,0 -0.62,-0.22 -0.62,-0.64l0 -0.86 -0.3 0 0 -0.43 0.3 0 0 -0.4 0.58 -0.17 0 0.57 0.42 0 0 0.43 -0.42 0 0 0.76c0,0.2 0.08,0.29 0.23,0.29 0.07,0 0.13,-0.01 0.19,-0.05l0 0.43z"/>
  <path class="fil0" d="M2.37 4.72l1.41 0c0.11,-0.02 0.21,-0.07 0.29,-0.16 0.08,-0.09 0.12,-0.19 0.12,-0.31 0,-0.12 -0.04,-0.22 -0.12,-0.31 -0.08,-0.09 -0.18,-0.15 -0.29,-0.16l-1.41 0c-0.12,0.01 -0.21,0.07 -0.29,0.16 -0.08,0.09 -0.12,0.19 -0.12,0.31 0,0.12 0.04,0.22 0.12,0.31 0.08,0.09 0.17,0.14 0.29,0.16zm5.65 -4.72l-6.61 0c-0.25,0 -0.49,0.06 -0.7,0.19 -0.22,0.13 -0.39,0.3 -0.52,0.52 -0.13,0.21 -0.19,0.45 -0.19,0.7l0 4.25c0,0.25 0.06,0.49 0.19,0.71 0.13,0.21 0.3,0.38 0.52,0.51 0.21,0.13 0.45,0.19 0.7,0.19l6.61 0c0.26,0 0.5,-0.06 0.71,-0.19 0.22,-0.13 0.39,-0.3 0.52,-0.51 0.12,-0.22 0.19,-0.46 0.19,-0.71l0 -4.25c0,-0.25 -0.07,-0.49 -0.19,-0.7 -0.13,-0.22 -0.3,-0.39 -0.52,-0.52 -0.21,-0.13 -0.45,-0.19 -0.71,-0.19zm0.47 5.66c0,0.13 -0.05,0.24 -0.14,0.33 -0.09,0.1 -0.2,0.14 -0.33,0.14l-6.61 0c-0.12,0 -0.23,-0.04 -0.32,-0.14 -0.09,-0.09 -0.14,-0.2 -0.14,-0.33l0 -2.83 7.54 0 0 2.83zm0 -3.77l-7.54 0 0 -0.48c0,-0.12 0.05,-0.23 0.14,-0.32 0.09,-0.09 0.2,-0.14 0.32,-0.14l6.61 0c0.13,0 0.24,0.05 0.33,0.14 0.09,0.09 0.14,0.2 0.14,0.32l0 0.48z"/>
  <polygon class="fil0" points="14.12,7.29 10.32,7.29 10.32,0.12 13.96,0.12 13.96,0.88 11.16,0.88 11.16,3.27 13.75,3.27 13.75,4.02 11.16,4.02 11.16,6.53 14.12,6.53 "/>
  <path id="_1_0" class="fil0" d="M15.16 7l0 -0.99c0.12,0.1 0.25,0.19 0.41,0.27 0.16,0.08 0.33,0.15 0.5,0.2 0.18,0.06 0.35,0.1 0.53,0.13 0.17,0.03 0.34,0.05 0.49,0.05 0.51,0 0.9,-0.1 1.15,-0.29 0.26,-0.19 0.38,-0.47 0.38,-0.83 0,-0.19 -0.04,-0.36 -0.12,-0.5 -0.09,-0.15 -0.2,-0.28 -0.35,-0.39 -0.16,-0.12 -0.33,-0.24 -0.54,-0.35 -0.2,-0.1 -0.42,-0.22 -0.66,-0.34 -0.25,-0.13 -0.48,-0.25 -0.7,-0.38 -0.21,-0.13 -0.4,-0.28 -0.56,-0.43 -0.16,-0.16 -0.29,-0.34 -0.38,-0.54 -0.09,-0.2 -0.14,-0.43 -0.14,-0.69 0,-0.33 0.08,-0.61 0.22,-0.86 0.14,-0.24 0.33,-0.44 0.56,-0.59 0.24,-0.16 0.5,-0.28 0.8,-0.36 0.3,-0.07 0.6,-0.11 0.91,-0.11 0.71,0 1.23,0.09 1.55,0.26l0 0.94c-0.42,-0.3 -0.97,-0.44 -1.63,-0.44 -0.18,0 -0.37,0.02 -0.55,0.06 -0.18,0.03 -0.35,0.1 -0.49,0.18 -0.14,0.09 -0.26,0.2 -0.35,0.34 -0.09,0.14 -0.14,0.3 -0.14,0.5 0,0.18 0.04,0.34 0.11,0.48 0.07,0.13 0.17,0.25 0.3,0.36 0.13,0.11 0.29,0.22 0.49,0.32 0.19,0.1 0.41,0.22 0.66,0.34 0.25,0.13 0.5,0.26 0.73,0.4 0.23,0.14 0.43,0.3 0.6,0.47 0.17,0.17 0.31,0.36 0.41,0.56 0.1,0.21 0.16,0.45 0.16,0.71 0,0.36 -0.07,0.66 -0.21,0.9 -0.14,0.24 -0.33,0.44 -0.56,0.6 -0.24,0.15 -0.51,0.26 -0.81,0.33 -0.31,0.07 -0.63,0.1 -0.97,0.1 -0.12,0 -0.26,-0.01 -0.42,-0.02 -0.17,-0.02 -0.34,-0.05 -0.51,-0.08 -0.18,-0.04 -0.34,-0.08 -0.49,-0.13 -0.16,-0.06 -0.28,-0.11 -0.38,-0.18z"/>
  <polygon id="_2_1" class="fil0" points="23.45,4.76 20.72,4.76 20.72,4.12 23.45,4.12 "/>
  <path id="_3_2" class="fil0" d="M25.88 4.58l0 2.71 -0.84 0 0 -7.17 1.97 0c0.76,0 1.36,0.19 1.78,0.56 0.42,0.37 0.63,0.9 0.63,1.58 0,0.68 -0.24,1.24 -0.7,1.67 -0.47,0.43 -1.1,0.65 -1.9,0.65l-0.94 0zm0 -3.7l0 2.94 0.87 0c0.58,0 1.03,-0.13 1.33,-0.4 0.31,-0.26 0.46,-0.64 0.46,-1.12 0,-0.95 -0.56,-1.42 -1.68,-1.42l-0.98 0z"/>
  <path id="_4_3" class="fil0" d="M34.32 7.29l-0.82 0 0 -0.8 -0.02 0c-0.35,0.62 -0.88,0.92 -1.57,0.92 -0.51,0 -0.91,-0.13 -1.2,-0.4 -0.29,-0.27 -0.43,-0.63 -0.43,-1.08 0,-0.96 0.56,-1.51 1.69,-1.67l1.53 -0.22c0,-0.87 -0.35,-1.31 -1.05,-1.31 -0.62,0 -1.17,0.22 -1.67,0.64l0 -0.84c0.5,-0.32 1.08,-0.48 1.74,-0.48 1.2,0 1.8,0.63 1.8,1.91l0 3.33zm-0.82 -2.59l-1.23 0.17c-0.38,0.05 -0.67,0.15 -0.86,0.28 -0.19,0.14 -0.29,0.38 -0.29,0.72 0,0.25 0.09,0.46 0.27,0.62 0.17,0.16 0.41,0.24 0.71,0.24 0.41,0 0.74,-0.15 1.01,-0.43 0.26,-0.29 0.39,-0.65 0.39,-1.09l0 -0.51z"/>
  <path id="_5_4" class="fil0" d="M39.94 2.17l-2.35 5.94c-0.42,1.06 -1.01,1.59 -1.77,1.59 -0.22,0 -0.39,-0.03 -0.54,-0.07l0 -0.73c0.18,0.06 0.34,0.09 0.49,0.09 0.41,0 0.72,-0.25 0.93,-0.74l0.41 -0.97 -2 -5.11 0.91 0 1.38 3.94c0.02,0.05 0.05,0.18 0.11,0.39l0.03 0c0.01,-0.08 0.05,-0.21 0.1,-0.38l1.45 -3.95 0.85 0z"/>
 </g>
</svg>
